{
    "asset" : {
        "generator" : "Khronos glTF Blender I/O v3.2.40",
        "version" : "2.0"
    },
    "scene" : 0,
    "scenes" : [
        {
            "name" : "Scene",
            "nodes" : [
                0,
                1,
                2,
                3,
                4
            ]
        }
    ],
    "nodes" : [
        {
            "mesh" : 0,
            "name" : "Cube",
            "rotation" : [
                0,
                0,
                0.5865578651428223,
                0.8099073171615601
            ],
            "translation" : [
                3.145179271697998,
                4.955170631408691,
                -0.06422528624534607
            ]
        },
        {
            "mesh" : 1,
            "name" : "Cube.001",
            "scale" : [
                8,
                0.30000001192092896,
                8
            ],
            "translation" : [
                0,
                0.8459778428077698,
                0
            ]
        },
        {
            "mesh" : 2,
            "name" : "Cube.003",
            "rotation" : [
                0,
                0,
                -0.3826834559440613,
                0.9238795638084412
            ],
            "translation" : [
                -3.767627239227295,
                6.473862171173096,
                0.061640262603759766
            ]
        },
        {
            "mesh" : 3,
            "name" : "Cube.002",
            "rotation" : [
                0,
                0,
                0.9630210995674133,
                0.2694258987903595
            ],
            "translation" : [
                -5.659582138061523,
                3.4395759105682373,
                0
            ]
        },
        {
            "mesh" : 4,
            "name" : "Cube.004",
            "rotation" : [
                0,
                0,
                0.8600471019744873,
                0.5102145671844482
            ],
            "translation" : [
                -2.116793632507324,
                4.871129512786865,
                -0.13367289304733276
            ]
        }
    ],
    "materials" : [
        {
            "doubleSided" : true,
            "name" : "Material",
            "pbrMetallicRoughness" : {
                "baseColorFactor" : [
                    1,
                    0,
                    0.0009682158706709743,
                    1
                ],
                "metallicFactor" : 0,
                "roughnessFactor" : 0.4000000059604645
            }
        },
        {
            "doubleSided" : true,
            "name" : "Material.001",
            "pbrMetallicRoughness" : {
                "baseColorFactor" : [
                    0.8000000715255737,
                    0.20774686336517334,
                    0.09776803851127625,
                    1
                ],
                "metallicFactor" : 0,
                "roughnessFactor" : 0.5
            }
        },
        {
            "doubleSided" : true,
            "name" : "Material.003",
            "pbrMetallicRoughness" : {
                "baseColorFactor" : [
                    0.014336309395730495,
                    0.010983491316437721,
                    0.8000000715255737,
                    1
                ],
                "metallicFactor" : 0,
                "roughnessFactor" : 0.4000000059604645
            }
        }
    ],
    "meshes" : [
        {
            "name" : "Cube",
            "primitives" : [
                {
                    "attributes" : {
                        "POSITION" : 0,
                        "NORMAL" : 1,
                        "TEXCOORD_0" : 2
                    },
                    "indices" : 3,
                    "material" : 0
                }
            ]
        },
        {
            "name" : "Cube.003",
            "primitives" : [
                {
                    "attributes" : {
                        "POSITION" : 4,
                        "NORMAL" : 5,
                        "TEXCOORD_0" : 6
                    },
                    "indices" : 7,
                    "material" : 1
                }
            ]
        },
        {
            "name" : "Cube.004",
            "primitives" : [
                {
                    "attributes" : {
                        "POSITION" : 8,
                        "NORMAL" : 9,
                        "TEXCOORD_0" : 10
                    },
                    "indices" : 11,
                    "material" : 2
                }
            ]
        },
        {
            "name" : "Cube.005",
            "primitives" : [
                {
                    "attributes" : {
                        "POSITION" : 12,
                        "NORMAL" : 13,
                        "TEXCOORD_0" : 14
                    },
                    "indices" : 3,
                    "material" : 0
                }
            ]
        },
        {
            "name" : "Cube.006",
            "primitives" : [
                {
                    "attributes" : {
                        "POSITION" : 15,
                        "NORMAL" : 16,
                        "TEXCOORD_0" : 17
                    },
                    "indices" : 3,
                    "material" : 0
                }
            ]
        }
    ],
    "accessors" : [
        {
            "bufferView" : 0,
            "componentType" : 5126,
            "count" : 206,
            "max" : [
                7.4971513748168945,
                0.0724186897277832,
                1
            ],
            "min" : [
                -4.483450889587402,
                -0.0724186897277832,
                -1
            ],
            "type" : "VEC3"
        },
        {
            "bufferView" : 1,
            "componentType" : 5126,
            "count" : 206,
            "type" : "VEC3"
        },
        {
            "bufferView" : 2,
            "componentType" : 5126,
            "count" : 206,
            "type" : "VEC2"
        },
        {
            "bufferView" : 3,
            "componentType" : 5123,
            "count" : 390,
            "type" : "SCALAR"
        },
        {
            "bufferView" : 4,
            "componentType" : 5126,
            "count" : 14,
            "max" : [
                1,
                1,
                1
            ],
            "min" : [
                -1,
                -1,
                -1
            ],
            "type" : "VEC3"
        },
        {
            "bufferView" : 5,
            "componentType" : 5126,
            "count" : 14,
            "type" : "VEC3"
        },
        {
            "bufferView" : 6,
            "componentType" : 5126,
            "count" : 14,
            "type" : "VEC2"
        },
        {
            "bufferView" : 7,
            "componentType" : 5123,
            "count" : 36,
            "type" : "SCALAR"
        },
        {
            "bufferView" : 8,
            "componentType" : 5126,
            "count" : 618,
            "max" : [
                7.7661662101745605,
                0.0854354053735733,
                1
            ],
            "min" : [
                -6.665463447570801,
                -2.5234456062316895,
                -1
            ],
            "type" : "VEC3"
        },
        {
            "bufferView" : 9,
            "componentType" : 5126,
            "count" : 618,
            "type" : "VEC3"
        },
        {
            "bufferView" : 10,
            "componentType" : 5126,
            "count" : 618,
            "type" : "VEC2"
        },
        {
            "bufferView" : 11,
            "componentType" : 5123,
            "count" : 1170,
            "type" : "SCALAR"
        },
        {
            "bufferView" : 12,
            "componentType" : 5126,
            "count" : 206,
            "max" : [
                7.4971513748168945,
                0.0724186897277832,
                1
            ],
            "min" : [
                -4.483450889587402,
                -0.0724186897277832,
                -1
            ],
            "type" : "VEC3"
        },
        {
            "bufferView" : 13,
            "componentType" : 5126,
            "count" : 206,
            "type" : "VEC3"
        },
        {
            "bufferView" : 14,
            "componentType" : 5126,
            "count" : 206,
            "type" : "VEC2"
        },
        {
            "bufferView" : 15,
            "componentType" : 5126,
            "count" : 206,
            "max" : [
                7.4971513748168945,
                0.0724186897277832,
                1
            ],
            "min" : [
                -4.483450889587402,
                -0.0724186897277832,
                -1
            ],
            "type" : "VEC3"
        },
        {
            "bufferView" : 16,
            "componentType" : 5126,
            "count" : 206,
            "type" : "VEC3"
        },
        {
            "bufferView" : 17,
            "componentType" : 5126,
            "count" : 206,
            "type" : "VEC2"
        }
    ],
    "bufferViews" : [
        {
            "buffer" : 0,
            "byteLength" : 2472,
            "byteOffset" : 0
        },
        {
            "buffer" : 0,
            "byteLength" : 2472,
            "byteOffset" : 2472
        },
        {
            "buffer" : 0,
            "byteLength" : 1648,
            "byteOffset" : 4944
        },
        {
            "buffer" : 0,
            "byteLength" : 780,
            "byteOffset" : 6592
        },
        {
            "buffer" : 0,
            "byteLength" : 168,
            "byteOffset" : 7372
        },
        {
            "buffer" : 0,
            "byteLength" : 168,
            "byteOffset" : 7540
        },
        {
            "buffer" : 0,
            "byteLength" : 112,
            "byteOffset" : 7708
        },
        {
            "buffer" : 0,
            "byteLength" : 72,
            "byteOffset" : 7820
        },
        {
            "buffer" : 0,
            "byteLength" : 7416,
            "byteOffset" : 7892
        },
        {
            "buffer" : 0,
            "byteLength" : 7416,
            "byteOffset" : 15308
        },
        {
            "buffer" : 0,
            "byteLength" : 4944,
            "byteOffset" : 22724
        },
        {
            "buffer" : 0,
            "byteLength" : 2340,
            "byteOffset" : 27668
        },
        {
            "buffer" : 0,
            "byteLength" : 2472,
            "byteOffset" : 30008
        },
        {
            "buffer" : 0,
            "byteLength" : 2472,
            "byteOffset" : 32480
        },
        {
            "buffer" : 0,
            "byteLength" : 1648,
            "byteOffset" : 34952
        },
        {
            "buffer" : 0,
            "byteLength" : 2472,
            "byteOffset" : 36600
        },
        {
            "buffer" : 0,
            "byteLength" : 2472,
            "byteOffset" : 39072
        },
        {
            "buffer" : 0,
            "byteLength" : 1648,
            "byteOffset" : 41544
        }
    ],
    "buffers" : [
        {
            "byteLength" : 43192,
            "uri" : "data:application/octet-stream;base64,"
        }
    ]
}
