{
    "asset" : {
        "generator" : "Khronos glTF Blender I/O v3.2.40",
        "version" : "2.0"
    },
    "scene" : 0,
    "scenes" : [
        {
            "name" : "Scene",
            "nodes" : [
                0,
                1,
                2
            ]
        }
    ],
    "nodes" : [
        {
            "mesh" : 0,
            "name" : "Cube.001",
            "scale" : [
                8,
                0.30000001192092896,
                8
            ],
            "translation" : [
                -3.545506715774536,
                0,
                4.434096813201904
            ]
        },
        {
            "mesh" : 1,
            "name" : "Cube.003",
            "rotation" : [
                0,
                0,
                -0.3826834559440613,
                0.9238795638084412
            ],
            "translation" : [
                -6.8950605392456055,
                5.583702087402344,
                4.546413421630859
            ]
        },
        {
            "mesh" : 2,
            "name" : "Cube.006",
            "rotation" : [
                0.8949344158172607,
                0.4461977183818817,
                0,
                1.950392380933863e-08
            ],
            "translation" : [
                -0.41731658577919006,
                5.924386501312256,
                4.46165657043457
            ]
        }
    ],
    "materials" : [
        {
            "doubleSided" : true,
            "name" : "Material.002",
            "pbrMetallicRoughness" : {}
        },
        {
            "doubleSided" : true,
            "name" : "Material",
            "pbrMetallicRoughness" : {
                "baseColorFactor" : [
                    0.014336309395730495,
                    0.010983491316437721,
                    0.8000000715255737,
                    1
                ],
                "metallicFactor" : 0,
                "roughnessFactor" : 0.4000000059604645
            }
        },
        {
            "doubleSided" : true,
            "name" : "Material.001",
            "pbrMetallicRoughness" : {
                "baseColorFactor" : [
                    0.8000000715255737,
                    0.2407350391149521,
                    0.3050650656223297,
                    1
                ],
                "metallicFactor" : 0,
                "roughnessFactor" : 0.5
            }
        }
    ],
    "meshes" : [
        {
            "name" : "Cube.001",
            "primitives" : [
                {
                    "attributes" : {
                        "POSITION" : 0,
                        "NORMAL" : 1,
                        "TEXCOORD_0" : 2
                    },
                    "indices" : 3,
                    "material" : 0
                }
            ]
        },
        {
            "name" : "Cube.003",
            "primitives" : [
                {
                    "attributes" : {
                        "POSITION" : 4,
                        "NORMAL" : 5,
                        "TEXCOORD_0" : 6
                    },
                    "indices" : 7,
                    "material" : 1
                }
            ]
        },
        {
            "name" : "Cube.006",
            "primitives" : [
                {
                    "attributes" : {
                        "POSITION" : 8,
                        "NORMAL" : 9,
                        "TEXCOORD_0" : 10
                    },
                    "indices" : 11,
                    "material" : 2
                }
            ]
        }
    ],
    "accessors" : [
        {
            "bufferView" : 0,
            "componentType" : 5126,
            "count" : 24,
            "max" : [
                1,
                1,
                1
            ],
            "min" : [
                -1,
                -1,
                -1
            ],
            "type" : "VEC3"
        },
        {
            "bufferView" : 1,
            "componentType" : 5126,
            "count" : 24,
            "type" : "VEC3"
        },
        {
            "bufferView" : 2,
            "componentType" : 5126,
            "count" : 24,
            "type" : "VEC2"
        },
        {
            "bufferView" : 3,
            "componentType" : 5123,
            "count" : 36,
            "type" : "SCALAR"
        },
        {
            "bufferView" : 4,
            "componentType" : 5126,
            "count" : 618,
            "max" : [
                7.7661662101745605,
                0.0854354053735733,
                1
            ],
            "min" : [
                -6.665463447570801,
                -2.5234456062316895,
                -1
            ],
            "type" : "VEC3"
        },
        {
            "bufferView" : 5,
            "componentType" : 5126,
            "count" : 618,
            "type" : "VEC3"
        },
        {
            "bufferView" : 6,
            "componentType" : 5126,
            "count" : 618,
            "type" : "VEC2"
        },
        {
            "bufferView" : 7,
            "componentType" : 5123,
            "count" : 1170,
            "type" : "SCALAR"
        },
        {
            "bufferView" : 8,
            "componentType" : 5126,
            "count" : 618,
            "max" : [
                6.6352434158325195,
                2.5699174404144287,
                1.0000014305114746
            ],
            "min" : [
                -7.765997409820557,
                -0.18291667103767395,
                -1
            ],
            "type" : "VEC3"
        },
        {
            "bufferView" : 9,
            "componentType" : 5126,
            "count" : 618,
            "type" : "VEC3"
        },
        {
            "bufferView" : 10,
            "componentType" : 5126,
            "count" : 618,
            "type" : "VEC2"
        },
        {
            "bufferView" : 11,
            "componentType" : 5123,
            "count" : 1170,
            "type" : "SCALAR"
        }
    ],
    "bufferViews" : [
        {
            "buffer" : 0,
            "byteLength" : 288,
            "byteOffset" : 0
        },
        {
            "buffer" : 0,
            "byteLength" : 288,
            "byteOffset" : 288
        },
        {
            "buffer" : 0,
            "byteLength" : 192,
            "byteOffset" : 576
        },
        {
            "buffer" : 0,
            "byteLength" : 72,
            "byteOffset" : 768
        },
        {
            "buffer" : 0,
            "byteLength" : 7416,
            "byteOffset" : 840
        },
        {
            "buffer" : 0,
            "byteLength" : 7416,
            "byteOffset" : 8256
        },
        {
            "buffer" : 0,
            "byteLength" : 4944,
            "byteOffset" : 15672
        },
        {
            "buffer" : 0,
            "byteLength" : 2340,
            "byteOffset" : 20616
        },
        {
            "buffer" : 0,
            "byteLength" : 7416,
            "byteOffset" : 22956
        },
        {
            "buffer" : 0,
            "byteLength" : 7416,
            "byteOffset" : 30372
        },
        {
            "buffer" : 0,
            "byteLength" : 4944,
            "byteOffset" : 37788
        },
        {
            "buffer" : 0,
            "byteLength" : 2340,
            "byteOffset" : 42732
        }
    ],
    "buffers" : [
        {
            "byteLength" : 45072,
            "uri" : "data:application/octet-stream;base64,"
        }
    ]
}
